<?xml version="1.0" encoding="UTF-8"?>
<!DOCTYPE svg PUBLIC "-//W3C//DTD SVG 1.1//EN" "http://www.w3.org/Graphics/SVG/1.1/DTD/svg11.dtd">
<!-- Creator: CorelDRAW (Evaluation Version) -->
<svg xmlns="http://www.w3.org/2000/svg" xml:space="preserve" width="53.1184mm" height="53.1184mm" version="1.1" style="shape-rendering:geometricPrecision; text-rendering:geometricPrecision; image-rendering:optimizeQuality; fill-rule:evenodd; clip-rule:evenodd"
viewBox="0 0 5311.84 5311.84"
 xmlns:xlink="http://www.w3.org/1999/xlink"
 xmlns:xodm="http://www.corel.com/coreldraw/odm/2003">
 <defs>
  <style type="text/css">
   <![CDATA[
    .fil0 {fill:#00AFEF}
   ]]>
  </style>
 </defs>
 <g id="Layer_x0020_1">
  <metadata id="CorelCorpID_0Corel-Layer"/>
  <path class="fil0" d="M33.09 3117.32c-25.59,-147.94 -39.29,-303.17 -38.95,-458.42l850.14 0c-0.67,156.52 20.37,313.71 57.98,458.42l-869.17 0z"/>
  <path class="fil0" d="M117.29 3463.16c-23.06,-72.9 -43.06,-147.15 -59.85,-222.61l881.61 0c25.91,76.64 56.84,150.98 92.38,222.61l-914.14 0z"/>
  <path class="fil0" d="M217.46 3729.14c-20.6,-46.89 -39.89,-94.49 -57.83,-142.75l939.03 0c29.35,49.15 60.96,96.78 94.7,142.75l-975.9 0z"/>
  <path class="fil0" d="M337.92 3969.3c-32.98,-58.18 -63.83,-117.74 -92.43,-178.55l995.16 0c50.63,63.14 105.41,122.79 163.93,178.55l-1066.66 0z"/>
  <path class="fil0" d="M4833.75 4173.6c-479.49,691.31 -1278.66,1144.09 -2183.7,1144.09 -905.04,0 -1704.21,-452.78 -2183.7,-1144.09l1196.02 0c283.84,185.81 623.1,293.95 987.68,293.95 364.58,0 703.84,-108.14 987.67,-293.95l1196.03 0z"/>
  <path class="fil0" d="M5054.61 3790.75c-28.61,60.81 -59.45,120.37 -92.43,178.55l-1066.67 0c58.53,-55.76 113.31,-115.41 163.94,-178.55l995.16 0z"/>
  <path class="fil0" d="M5140.46 3586.39c-17.93,48.26 -37.22,95.86 -57.82,142.75l-975.91 0c33.75,-45.97 65.36,-93.6 94.71,-142.75l939.02 0z"/>
  <path class="fil0" d="M5242.65 3240.55c-16.78,75.46 -36.79,149.71 -59.84,222.61l-914.14 0c35.54,-71.63 66.46,-145.97 92.38,-222.61l881.6 0z"/>
  <path class="fil0" d="M5305.96 2658.9c0.33,155.25 -13.36,310.48 -38.95,458.42l-869.18 0c37.62,-144.71 58.65,-301.9 57.98,-458.42l850.15 0z"/>
  <path class="fil0" d="M5149.83 1762.84c45.91,127.6 82.34,259.74 108.43,395.54l-873.53 0c-40.43,-139.55 -97.23,-272.15 -168.2,-395.54l933.3 0z"/>
  <path class="fil0" d="M2650.05 5.85c818.92,0 1551.16,370.73 2038.36,953.41l-1435.4 0c-188.57,-66.79 -391.5,-103.27 -602.96,-103.27 -211.47,0 -414.39,36.48 -602.97,103.27l-1435.39 0c487.19,-582.68 1219.43,-953.41 2038.36,-953.41z"/>
  <path class="fil0" d="M2431.75 3661.61l-756.79 -1877.81 521.01 0 353.37 958.2 102.52 320.21c27.14,-81.41 44.62,-135.08 51.25,-161.01 16.89,-53.07 34.38,-106.13 53.67,-159.2l358.2 -958.2 510.16 0 -745.94 1877.81 -447.45 0z"/>
  <path class="fil0" d="M41.84 2158.38c26.09,-135.8 62.52,-267.94 108.43,-395.54l933.3 0c-70.97,123.39 -127.77,255.99 -168.2,395.54l-873.53 0z"/>
 </g>
</svg>
